# xmcd
#
# Track frame offsets: 
#        150
#        38577
#        56170
#        71611
#        99384
#        119878
#        153939
#        174585
#        195561
#
# Disc length: 2974 seconds
#
# Revision: 2
# Processed by: cddbd v1.5.2PL0 Copyright (c) Steve Scherf et al.
# Submitted via: ExactAudioCopy v1.0b3
#
DISCID=790b9c09
DTITLE=Home Boy And The C.O.L. - Out Break
DYEAR=1984
DGENRE=Soul
TTITLE0=You Turn Me Out
TTITLE1=When Will You Be Mine
TTITLE2=La La (Means I Love You)
TTITLE3=Pleasure
TTITLE4=I Saw You Dancing
TTITLE5=I Don't Want to Be a Movie Star
TTITLE6=Happy Feeling
TTITLE7=Money's Funny Change Is Strange (Rap)
TTITLE8=A Love Connection [Long Version]
EXTD=
EXTT0=
EXTT1=
EXTT2=
EXTT3=
EXTT4=
EXTT5=
EXTT6=
EXTT7=
EXTT8=
PLAYORDER=
